PathFileType	4	(X/Y/Z)	20_2_8_p0_0-314_filt_butterworth.trc
DataRate	CameraRate	NumFrames	NumMarkers	Units	OrigDataRate	OrigDataStartFrame	OrigNumFrames
59.0	59.0	4	27	m	59.0	0	314
Frame#	Time	RHip			RKnee			RAnkle			RBigToe			RSmallToe			RHeel			LHip			LKnee			LAnkle			LBigToe			LSmallToe			LHeel			Neck			Head			Nose			RShoulder			RElbow			RWrist			RThumb			RIndex			RPinky			LShoulder			LElbow			LWrist			LThumb			LIndex			LPinky			
		X1	Y1	Z1	X2	Y2	Z2	X3	Y3	Z3	X4	Y4	Z4	X5	Y5	Z5	X6	Y6	Z6	X7	Y7	Z7	X8	Y8	Z8	X9	Y9	Z9	X10	Y10	Z10	X11	Y11	Z11	X12	Y12	Z12	X13	Y13	Z13	X14	Y14	Z14	X15	Y15	Z15	X16	Y16	Z16	X17	Y17	Z17	X18	Y18	Z18	X19	Y19	Z19	X20	Y20	Z20	X21	Y21	Z21	X22	Y22	Z22	X23	Y23	Z23	X24	Y24	Z24	X25	Y25	Z25	X26	Y26	Z26	X27	Y27	Z27	
0	0.0	0.35451247503490346	0.5334031125871379	0.9229603808903213	0.3370568471070217	0.6550332066141397	1.3586464198320563	0.33349764142148736	0.7606339510900667	1.7658065315987597	0.3203647704517576	0.644355299847164	1.8063792436529158	0.3753890125331129	0.6554690159618878	1.8050350148486776	0.31642360290587584	0.8411223924829909	1.8344887353257937	0.1515191461267574	0.5675550088230192	0.9213250771169444	0.13386204786501252	0.7017316078151641	1.363354203987942	0.14254720724020775	0.7952359409584002	1.7705414947147449	0.15869024566264736	0.6127299541657557	1.787196000509715	0.12014962147559512	0.6069245595526015	1.7703253658576648	0.15439561985946354	0.8454970006088144	1.8108655458855	0.26134601312697686	0.4130237578033879	0.3535503662064719	0.2532694235414927	0.323115560877683	0.12393282024185245	0.23247463643899835	0.2825540218610499	0.2650229060412903	0.40994232913522727	0.41833036058786494	0.43669811046409074	0.43403425515449545	0.45788417680114046	0.6999479784847508	0.2936657287848166	0.2713887171493717	0.7971065486630653	0.22367232099319895	0.1686370821275549	0.7616461443442732	0.2211868601985773	0.1488824656283053	0.7850097611389043	0.22135729387354866	0.18661353194511454	0.840294221609001	0.10029869864055592	0.4290549968248752	0.43441473757073	0.05715268313951115	0.44426553298157456	0.6775358234762833	0.1701605259873848	0.27999529334222134	0.7710279764830197	0.21939606733900646	0.18591625840594683	0.7621792339414292	0.22839604812624853	0.18343814403915945	0.7828583332606267	0.22998775071728086	0.217084695341837	0.8541658047251957
1	0.0169491525423728	0.3558019967659165	0.5232710476979645	0.9196635771249618	0.33696628970548176	0.652020724945931	1.3539261070291881	0.33331651503901677	0.7599398101601871	1.7633353595787795	0.3222387258165802	0.6348786509386707	1.8026753924199967	0.37726659347995267	0.6458943562562611	1.8012980853891838	0.31485201803401924	0.8502257251393728	1.8380326246151197	0.15404125555566928	0.5573464910254604	0.9167553461244161	0.1336505385688316	0.6992348665648467	1.3584723954770013	0.14252349944417803	0.7954375808426579	1.7705745342223072	0.16092655998875685	0.6141929393292161	1.7879208351763878	0.11786026460329058	0.6163542331446404	1.7740249063075058	0.15324280891169478	0.8446187887642675	1.8105346457420393	0.2601279044315888	0.41290280663694817	0.35352726728757083	0.2532676091413241	0.32278661837844563	0.12397825278579734	0.23242937169745986	0.2824043142212207	0.26413160456510976	0.4099821323766018	0.4181653422504102	0.43673434125174737	0.43491051041471007	0.4503560407709907	0.6995910650324654	0.2931624173770484	0.2734286716783918	0.7985317447644388	0.2206113315398297	0.17670851952486943	0.7658207936631136	0.21656374134588569	0.16608130940865679	0.7941929430293874	0.21952500751957477	0.19226858786369383	0.8417667929821094	0.10045619195955219	0.42859566016164197	0.4353620903965963	0.057077154648646045	0.44423248830861267	0.6789556278139103	0.16551317501287502	0.27290647886483155	0.7710868754330277	0.2194711338299274	0.18627721805569578	0.762246860572749	0.22897552367107799	0.1846327604670738	0.7849917732516978	0.22999379647988066	0.21691198576420695	0.8541281758419038
2	0.0338983050847457	0.3565791187760208	0.5171674132752035	0.9176545770477308	0.3369105090993632	0.6503025810410208	1.3513500572065806	0.3329887601391899	0.7588175887223945	1.760667166726889	0.32334452190379137	0.6291650753866408	1.8004421600723328	0.37840176395888825	0.6401580420737758	1.799066308045008	0.31488561823441014	0.854028792975458	1.8393038114403126	0.15546555688952712	0.5512940593307969	0.9141735378463359	0.13356329623112448	0.6976299524616201	1.3554275797137905	0.14250565165859885	0.7955602627040149	1.770596855720061	0.16161043702735658	0.6145249565319605	1.7879842371621155	0.11648451765749798	0.6219002784238505	1.7761869869809392	0.1527729581583134	0.8437623031458006	1.810194124353096	0.2592271092198916	0.412845043183904	0.3535893559210784	0.2532159403348315	0.32244296331322647	0.12403140339381413	0.2324141764302648	0.2824143318393268	0.263746764212941	0.4099975446071784	0.41798881303049795	0.4367575775109572	0.4356495496868261	0.4460866176520167	0.6993540010011813	0.2928882726070672	0.2746789062232738	0.7999181240228386	0.21783248758111914	0.1830101322563209	0.7684908448043812	0.2135047452344212	0.1776054786337426	0.8004387847998053	0.21839910540469004	0.1956920602995031	0.842760226313761	0.10045352958137342	0.4281310944878706	0.435753508079104	0.05706335301740759	0.44411999675083846	0.6802694220513998	0.16271363729148192	0.2687678644624738	0.7710352241165622	0.21954233535194767	0.18673292372755174	0.76235219575774	0.22940245733222267	0.18555284384850904	0.7868503268676743	0.22996284580115592	0.21679005978406674	0.8540869692092963
3	0.0508474576271186	0.35678448090050263	0.5154692494948151	0.9171415182469809	0.33694785881600187	0.6502140343822107	1.3511484964310312	0.33230432139091115	0.7564931162689307	1.7584706721081544	0.3236069679595319	0.6272814702694496	1.7996788856521075	0.37873804070745665	0.6385186436467907	1.7984296008833747	0.3163859414354344	0.8535694482865299	1.838419572549254	0.15588063330543545	0.5499307721848256	0.9140367791444559	0.13363880128311273	0.6970134787993106	1.3545002842269664	0.14250838016144846	0.7955837383231392	1.7705957774114736	0.1603340314033406	0.6123005554781563	1.7866089234790306	0.11609034631475366	0.6232171782070046	1.776640695848606	0.15323051749480626	0.8433404963994112	1.8100063411706948	0.25854190000939015	0.4129956088234901	0.35399911559418223	0.25322880663827907	0.32240070663479525	0.12403188782461229	0.23243716343688167	0.28262263802792986	0.2640360933730176	0.40998589485625375	0.41779404602149117	0.43677365063657464	0.43662281876584064	0.44479910627619457	0.6992203957411501	0.29278951857024543	0.275223850092146	0.8008579093526157	0.21597627461847954	0.1864004251493166	0.7694466756834999	0.21289200139402903	0.18470009992306927	0.8033144230638053	0.21793794040713577	0.197028386459942	0.8431988849672586	0.10000894617556172	0.42810397189361604	0.4353520997415572	0.05709441972080212	0.4439744860964153	0.681102683213619	0.1620113760800494	0.267780553845254	0.7712757800555419	0.2196341065299609	0.1873455458114978	0.7627289001614862	0.22962134571138879	0.18603625771943255	0.788423561622354	0.22990838605676941	0.21669402201176638	0.854060247715375
